<svg width="18" height="12" viewBox="0 0 18 12" fill="none" xmlns="http://www.w3.org/2000/svg">
<path d="M8.8 3.6C9.43652 3.6 10.047 3.85286 10.4971 4.30294C10.9471 4.75303 11.2 5.36348 11.2 6C11.2 6.63652 10.9471 7.24697 10.4971 7.69706C10.047 8.14714 9.43652 8.4 8.8 8.4C8.16348 8.4 7.55303 8.14714 7.10294 7.69706C6.65286 7.24697 6.4 6.63652 6.4 6C6.4 5.36348 6.65286 4.75303 7.10294 4.30294C7.55303 3.85286 8.16348 3.6 8.8 3.6ZM8.8 0C12.8 0 16.216 2.488 17.6 6C16.216 9.512 12.8 12 8.8 12C4.8 12 1.384 9.512 0 6C1.384 2.488 4.8 0 8.8 0ZM1.744 6C2.3906 7.32025 3.39464 8.4326 4.64198 9.2106C5.88932 9.98861 7.32992 10.4011 8.8 10.4011C10.2701 10.4011 11.7107 9.98861 12.958 9.2106C14.2054 8.4326 15.2094 7.32025 15.856 6C15.2094 4.67975 14.2054 3.5674 12.958 2.7894C11.7107 2.01139 10.2701 1.59894 8.8 1.59894C7.32992 1.59894 5.88932 2.01139 4.64198 2.7894C3.39464 3.5674 2.3906 4.67975 1.744 6Z" fill="#01B1B4"/>
</svg>
