<svg width="32" height="32" viewBox="0 0 32 32" fill="none" xmlns="http://www.w3.org/2000/svg">
<path d="M25.3333 22.6666V15.7333C24.6667 15.8666 24 16 23.3333 16H22.6667V24H9.33333V14.6666C9.33333 10.9333 12.2667 7.99996 16 7.99996C16.1333 6.26663 16.9333 4.79996 18 3.59996C17.6 3.06663 16.8 2.66663 16 2.66663C14.5333 2.66663 13.3333 3.86663 13.3333 5.33329V5.73329C9.33333 6.93329 6.66667 10.5333 6.66667 14.6666V22.6666L4 25.3333V26.6666H28V25.3333L25.3333 22.6666ZM13.3333 28C13.3333 29.4666 14.5333 30.6666 16 30.6666C17.4667 30.6666 18.6667 29.4666 18.6667 28H13.3333ZM28 8.66663C28 11.2 25.8667 13.3333 23.3333 13.3333C20.8 13.3333 18.6667 11.2 18.6667 8.66663C18.6667 6.13329 20.8 3.99996 23.3333 3.99996C25.8667 3.99996 28 6.13329 28 8.66663Z" fill="white"/>
</svg>
