<svg width="27" height="27" viewBox="0 0 27 27" fill="none" xmlns="http://www.w3.org/2000/svg">
<path d="M2.25014 19.1251H24.7501V21.3751H2.25014V19.1251ZM3.54389 14.5689L4.50014 12.9039L5.45638 14.5689L6.91888 13.7251L5.96263 12.0601H7.87513V10.3726H5.96263L6.91888 8.71889L5.45638 7.87514L4.50014 9.52889L3.54389 7.87514L2.08139 8.71889L3.03764 10.3726H1.12514V12.0601H3.03764L2.08139 13.7251L3.54389 14.5689ZM11.0814 13.7251L12.5439 14.5689L13.5001 12.9039L14.4564 14.5689L15.9189 13.7251L14.9626 12.0601H16.8751V10.3726H14.9626L15.9189 8.71889L14.4564 7.87514L13.5001 9.52889L12.5439 7.87514L11.0814 8.71889L12.0376 10.3726H10.1251V12.0601H12.0376L11.0814 13.7251ZM25.8751 10.3726H23.9626L24.9188 8.71889L23.4563 7.87514L22.5001 9.52889L21.5438 7.87514L20.0813 8.71889L21.0376 10.3726H19.1251V12.0601H21.0376L20.0813 13.7251L21.5438 14.5689L22.5001 12.9039L23.4563 14.5689L24.9188 13.7251L23.9626 12.0601H25.8751V10.3726Z" fill="#01B0B4"/>
</svg>
